<mxfile host="app.diagrams.net" agent="Mozilla/5.0 (Windows NT 10.0; Win64; x64) AppleWebKit/537.36 (KHTML, like Gecko) Chrome/129.0.0.0 Safari/537.36" version="26.0.11">
  <diagram name="Page-1" id="fsW6sOrBC7_Zrk3JgCw_">
    <mxGraphModel dx="1194" dy="592" grid="1" gridSize="10" guides="1" tooltips="1" connect="1" arrows="1" fold="1" page="1" pageScale="1" pageWidth="850" pageHeight="1100" math="0" shadow="0">
      <root>
        <mxCell id="0" />
        <mxCell id="1" parent="0" />
        <mxCell id="kTKnMte2kiV4Ll7oD6uA-2" value="User" style="rounded=1;whiteSpace=wrap;html=1;fillColor=#dae8fc;strokeColor=#6c8ebf;" vertex="1" parent="1">
          <mxGeometry x="40" y="260" width="120" height="60" as="geometry" />
        </mxCell>
        <mxCell id="kTKnMte2kiV4Ll7oD6uA-3" value="" style="endArrow=classic;html=1;rounded=0;" edge="1" parent="1">
          <mxGeometry width="50" height="50" relative="1" as="geometry">
            <mxPoint x="99.5" y="320" as="sourcePoint" />
            <mxPoint x="99.5" y="390" as="targetPoint" />
          </mxGeometry>
        </mxCell>
        <mxCell id="kTKnMte2kiV4Ll7oD6uA-4" value="Prompt Caching" style="rounded=1;whiteSpace=wrap;html=1;fillColor=#d5e8d4;strokeColor=#82b366;" vertex="1" parent="1">
          <mxGeometry x="230" y="260" width="120" height="60" as="geometry" />
        </mxCell>
        <mxCell id="kTKnMte2kiV4Ll7oD6uA-5" value="" style="endArrow=classic;html=1;rounded=0;" edge="1" parent="1">
          <mxGeometry width="50" height="50" relative="1" as="geometry">
            <mxPoint x="350" y="289.5" as="sourcePoint" />
            <mxPoint x="439.5" y="289.5" as="targetPoint" />
          </mxGeometry>
        </mxCell>
        <mxCell id="kTKnMte2kiV4Ll7oD6uA-8" value="Retrieving Caching Content" style="rounded=1;whiteSpace=wrap;html=1;fillColor=#d5e8d4;strokeColor=#82b366;" vertex="1" parent="1">
          <mxGeometry x="440" y="260" width="120" height="60" as="geometry" />
        </mxCell>
        <mxCell id="kTKnMte2kiV4Ll7oD6uA-9" value="" style="endArrow=classic;html=1;rounded=0;entryX=0;entryY=0.5;entryDx=0;entryDy=0;exitX=1;exitY=0.5;exitDx=0;exitDy=0;" edge="1" parent="1">
          <mxGeometry width="50" height="50" relative="1" as="geometry">
            <mxPoint x="160" y="289.5" as="sourcePoint" />
            <mxPoint x="230" y="289.5" as="targetPoint" />
          </mxGeometry>
        </mxCell>
        <mxCell id="kTKnMte2kiV4Ll7oD6uA-10" value="Yes" style="ellipse;whiteSpace=wrap;html=1;" vertex="1" parent="1">
          <mxGeometry x="170" y="240" width="40" height="40" as="geometry" />
        </mxCell>
        <mxCell id="kTKnMte2kiV4Ll7oD6uA-11" value="No" style="ellipse;whiteSpace=wrap;html=1;" vertex="1" parent="1">
          <mxGeometry x="110" y="330" width="40" height="40" as="geometry" />
        </mxCell>
        <mxCell id="kTKnMte2kiV4Ll7oD6uA-19" style="edgeStyle=orthogonalEdgeStyle;rounded=0;orthogonalLoop=1;jettySize=auto;html=1;exitX=1;exitY=0.5;exitDx=0;exitDy=0;" edge="1" parent="1" source="kTKnMte2kiV4Ll7oD6uA-12">
          <mxGeometry relative="1" as="geometry">
            <mxPoint x="250" y="420" as="targetPoint" />
          </mxGeometry>
        </mxCell>
        <mxCell id="kTKnMte2kiV4Ll7oD6uA-12" value="RAG" style="rounded=1;whiteSpace=wrap;html=1;fillColor=light-dark(#FFCE9F,var(--ge-dark-color, #121212));" vertex="1" parent="1">
          <mxGeometry x="40" y="390" width="120" height="60" as="geometry" />
        </mxCell>
        <mxCell id="kTKnMte2kiV4Ll7oD6uA-14" value="Vector Storage (Database)" style="rounded=1;whiteSpace=wrap;html=1;fillColor=light-dark(#FFCE9F,var(--ge-dark-color, #121212));" vertex="1" parent="1">
          <mxGeometry x="40" y="500" width="120" height="60" as="geometry" />
        </mxCell>
        <mxCell id="kTKnMte2kiV4Ll7oD6uA-15" value="" style="endArrow=classic;html=1;rounded=0;" edge="1" parent="1">
          <mxGeometry width="50" height="50" relative="1" as="geometry">
            <mxPoint x="80" y="450" as="sourcePoint" />
            <mxPoint x="80.5" y="500" as="targetPoint" />
          </mxGeometry>
        </mxCell>
        <mxCell id="kTKnMte2kiV4Ll7oD6uA-16" value="" style="endArrow=classic;html=1;rounded=0;" edge="1" parent="1">
          <mxGeometry width="50" height="50" relative="1" as="geometry">
            <mxPoint x="120" y="500" as="sourcePoint" />
            <mxPoint x="120" y="449" as="targetPoint" />
          </mxGeometry>
        </mxCell>
        <mxCell id="kTKnMte2kiV4Ll7oD6uA-18" value="" style="endArrow=classic;html=1;rounded=0;entryX=1;entryY=1;entryDx=0;entryDy=0;" edge="1" parent="1" target="kTKnMte2kiV4Ll7oD6uA-2">
          <mxGeometry width="50" height="50" relative="1" as="geometry">
            <mxPoint x="285" y="390" as="sourcePoint" />
            <mxPoint x="335" y="340" as="targetPoint" />
          </mxGeometry>
        </mxCell>
        <mxCell id="kTKnMte2kiV4Ll7oD6uA-20" value="LLM API" style="rounded=1;whiteSpace=wrap;html=1;fillColor=light-dark(#FF9999,var(--ge-dark-color, #121212));" vertex="1" parent="1">
          <mxGeometry x="250" y="390" width="120" height="60" as="geometry" />
        </mxCell>
        <mxCell id="kTKnMte2kiV4Ll7oD6uA-21" value="&lt;font style=&quot;font-size: 12px;&quot;&gt;Query&lt;/font&gt;" style="text;strokeColor=none;fillColor=none;html=1;fontSize=24;fontStyle=1;verticalAlign=middle;align=center;" vertex="1" parent="1">
          <mxGeometry x="10" y="330" width="100" height="40" as="geometry" />
        </mxCell>
        <mxCell id="kTKnMte2kiV4Ll7oD6uA-22" value="&lt;font style=&quot;font-size: 12px;&quot;&gt;Query&lt;/font&gt;" style="text;strokeColor=none;fillColor=none;html=1;fontSize=24;fontStyle=1;verticalAlign=middle;align=center;" vertex="1" parent="1">
          <mxGeometry x="150" y="290" width="100" height="40" as="geometry" />
        </mxCell>
        <mxCell id="kTKnMte2kiV4Ll7oD6uA-24" value="&lt;font style=&quot;font-size: 12px;&quot;&gt;&lt;font style=&quot;&quot;&gt;Respons&lt;/font&gt;e&lt;/font&gt;" style="text;strokeColor=none;fillColor=none;html=1;fontSize=24;fontStyle=1;verticalAlign=middle;align=center;rotation=30;" vertex="1" parent="1">
          <mxGeometry x="200" y="330" width="100" height="40" as="geometry" />
        </mxCell>
        <mxCell id="kTKnMte2kiV4Ll7oD6uA-25" value="" style="endArrow=classic;html=1;rounded=0;" edge="1" parent="1">
          <mxGeometry width="50" height="50" relative="1" as="geometry">
            <mxPoint x="80" y="200" as="sourcePoint" />
            <mxPoint x="500" y="200" as="targetPoint" />
          </mxGeometry>
        </mxCell>
        <mxCell id="kTKnMte2kiV4Ll7oD6uA-26" value="" style="endArrow=classic;html=1;rounded=0;" edge="1" parent="1">
          <mxGeometry width="50" height="50" relative="1" as="geometry">
            <mxPoint x="80" y="200" as="sourcePoint" />
            <mxPoint x="80" y="270" as="targetPoint" />
          </mxGeometry>
        </mxCell>
        <mxCell id="kTKnMte2kiV4Ll7oD6uA-27" value="" style="endArrow=classic;html=1;rounded=0;" edge="1" parent="1">
          <mxGeometry width="50" height="50" relative="1" as="geometry">
            <mxPoint x="499.5" y="200" as="sourcePoint" />
            <mxPoint x="499.5" y="270" as="targetPoint" />
          </mxGeometry>
        </mxCell>
      </root>
    </mxGraphModel>
  </diagram>
</mxfile>
